<?xml version="1.0" encoding="UTF-8"?>
<svg width="10px" height="10px" viewBox="0 0 10 10" version="1.1" xmlns="http://www.w3.org/2000/svg" xmlns:xlink="http://www.w3.org/1999/xlink">
    <!-- Generator: Sketch 49 (51002) - http://www.bohemiancoding.com/sketch -->
    <title>选择停用</title>
    <desc>Created with Sketch.</desc>
    <defs></defs>
    <g id="Page-1" stroke="none" stroke-width="1" fill="none" fill-rule="evenodd">
        <g id="参照选择，停用" transform="translate(-372.000000, -171.000000)" fill="#666666">
            <g id="友账表参照" transform="translate(190.000000, 161.000000)">
                <path d="M191.940101,14 L191,14 L191,11 L183,11 L183,18 L186,18 L186,19 L182,19 L182,10 L192,10 L192,13.9878896 L191.940101,14 Z M184,12 L190,12 L190,13 L184,13 L184,12 Z M184,14 L186,14 L186,15 L184,15 L184,14 Z M187,15 L192,15 L192,20 L187,20 L187,15 Z M188,16 L188,19 L191,19 L191,16 L188,16 Z M189,17 L190,17 L190,18 L189,18 L189,17 Z" id="选择停用"></path>
            </g>
        </g>
    </g>
</svg>